<?xml version="1.0" encoding="utf-8"?>
<!-- Generator: Adobe Illustrator 18.0.0, SVG Export Plug-In . SVG Version: 6.00 Build 0)  -->
<!DOCTYPE svg PUBLIC "-//W3C//DTD SVG 1.1//EN" "http://www.w3.org/Graphics/SVG/1.1/DTD/svg11.dtd">
<svg version="1.1" xmlns="http://www.w3.org/2000/svg" xmlns:xlink="http://www.w3.org/1999/xlink" x="0px" y="0px"
	 viewBox="0 0 48 32" enable-background="new 0 0 48 32" xml:space="preserve">
<g id="ICONS">
	<g>
		<polygon points="3,6 3,4 1,4 1,6 1,8 1,10 1,12 3,12 3,10 3,8 5,8 5,6 		"/>
		<polygon points="9,6 9,4 7,4 7,6 7,8 5,8 5,10 7,10 7,12 9,12 9,10 9,8 11,8 11,6 		"/>
		<polygon points="13,4 13,6 13,8 11,8 11,10 13,10 13,12 15,12 15,10 15,8 15,6 15,4 		"/>
	</g>
	<g>
		<polygon points="30,7 30,5 28,5 28,7 16,7 16,9 28,9 28,11 30,11 30,9 32,9 32,7 		"/>
		<rect x="26" y="11" width="2" height="2"/>
		<rect x="24" y="13" width="2" height="2"/>
		<rect x="24" y="1" width="2" height="2"/>
		<rect x="26" y="3" width="2" height="2"/>
	</g>
	<g>
		<path d="M46,2h-2h-2h-2h-2h-2h-2h-2v2v2v2v2v2v2h2h2h2h2h2h2h2h2v-2v-2V8V6V4V2H46z M46,8v2v2h-2h-2h-2h-2h-2h-2v-2V8V6h2V4h2h2h2
			h2v2h2V8z"/>
		<rect x="36" y="6" width="2" height="2"/>
		<polygon points="38,8 38,10 40,10 42,10 42,8 40,8 		"/>
		<rect x="42" y="6" width="2" height="2"/>
	</g>
	<g>
		<polygon fill="#FFFFFF" points="3,22 3,20 1,20 1,22 1,24 1,26 1,28 3,28 3,26 3,24 5,24 5,22 		"/>
		<polygon fill="#FFFFFF" points="9,22 9,20 7,20 7,22 7,24 5,24 5,26 7,26 7,28 9,28 9,26 9,24 11,24 11,22 		"/>
		<polygon fill="#FFFFFF" points="13,20 13,22 13,24 11,24 11,26 13,26 13,28 15,28 15,26 15,24 15,22 15,20 		"/>
	</g>
	<g>
		<polygon fill="#FFFFFF" points="30,23 30,21 28,21 28,23 16,23 16,25 28,25 28,27 30,27 30,25 32,25 32,23 		"/>
		<rect x="26" y="27" fill="#FFFFFF" width="2" height="2"/>
		<rect x="24" y="29" fill="#FFFFFF" width="2" height="2"/>
		<rect x="24" y="17" fill="#FFFFFF" width="2" height="2"/>
		<rect x="26" y="19" fill="#FFFFFF" width="2" height="2"/>
	</g>
	<g>
		<path fill="#FFFFFF" d="M46,18h-2h-2h-2h-2h-2h-2h-2v2v2v2v2v2v2h2h2h2h2h2h2h2h2v-2v-2v-2v-2v-2v-2H46z M46,24v2v2h-2h-2h-2h-2
			h-2h-2v-2v-2v-2h2v-2h2h2h2h2v2h2V24z"/>
		<rect x="36" y="22" fill="#FFFFFF" width="2" height="2"/>
		<polygon fill="#FFFFFF" points="38,24 38,26 40,26 42,26 42,24 40,24 		"/>
		<rect x="42" y="22" fill="#FFFFFF" width="2" height="2"/>
	</g>
</g>
</svg>
