<?xml version="1.0" encoding="utf-8"?>
<!-- Generator: Adobe Illustrator 18.0.0, SVG Export Plug-In . SVG Version: 6.00 Build 0)  -->
<!DOCTYPE svg PUBLIC "-//W3C//DTD SVG 1.1//EN" "http://www.w3.org/Graphics/SVG/1.1/DTD/svg11.dtd">
<svg version="1.1" xmlns="http://www.w3.org/2000/svg" xmlns:xlink="http://www.w3.org/1999/xlink" x="0px" y="0px"
	 viewBox="0 0 48 112" enable-background="new 0 0 48 112" xml:space="preserve">
<g id="GRID" display="none">
	<rect display="inline" fill="none" stroke="#231F20" stroke-miterlimit="10" width="16" height="16"/>
	<rect x="16" display="inline" fill="none" stroke="#231F20" stroke-miterlimit="10" width="16" height="16"/>
	<rect x="32" display="inline" fill="none" stroke="#231F20" stroke-miterlimit="10" width="16" height="16"/>
	<rect y="16" display="inline" fill="none" stroke="#231F20" stroke-miterlimit="10" width="16" height="16"/>
	<rect x="16" y="16" display="inline" fill="none" stroke="#231F20" stroke-miterlimit="10" width="16" height="16"/>
	<rect x="32" y="16" display="inline" fill="none" stroke="#231F20" stroke-miterlimit="10" width="16" height="16"/>
	<rect y="32" display="inline" fill="none" stroke="#231F20" stroke-miterlimit="10" width="16" height="16"/>
	<rect x="16" y="32" display="inline" fill="none" stroke="#231F20" stroke-miterlimit="10" width="16" height="16"/>
	<rect x="32" y="32" display="inline" fill="none" stroke="#231F20" stroke-miterlimit="10" width="16" height="16"/>
	<rect y="48" display="inline" fill="none" stroke="#231F20" stroke-miterlimit="10" width="16" height="16"/>
	<rect x="16" y="48" display="inline" fill="none" stroke="#231F20" stroke-miterlimit="10" width="16" height="16"/>
	<rect x="32" y="48" display="inline" fill="none" stroke="#231F20" stroke-miterlimit="10" width="16" height="16"/>
	<rect y="64" display="inline" fill="none" stroke="#231F20" stroke-miterlimit="10" width="16" height="16"/>
	<rect x="16" y="64" display="inline" fill="none" stroke="#231F20" stroke-miterlimit="10" width="16" height="16"/>
	<rect x="32" y="64" display="inline" fill="none" stroke="#231F20" stroke-miterlimit="10" width="16" height="16"/>
	<rect y="80" display="inline" fill="none" stroke="#231F20" stroke-miterlimit="10" width="16" height="16"/>
	<rect x="16" y="80" display="inline" fill="none" stroke="#231F20" stroke-miterlimit="10" width="16" height="16"/>
	<rect x="32" y="80" display="inline" fill="none" stroke="#231F20" stroke-miterlimit="10" width="16" height="16"/>
	<rect y="96" display="inline" fill="none" stroke="#231F20" stroke-miterlimit="10" width="16" height="16"/>
	<rect x="16" y="96" display="inline" fill="none" stroke="#231F20" stroke-miterlimit="10" width="16" height="16"/>
	<rect x="32" y="96" display="inline" fill="none" stroke="#231F20" stroke-miterlimit="10" width="16" height="16"/>
</g>
<g id="ICONS">
	<rect x="1" y="6" width="2" height="2"/>
	<rect x="1" y="4" width="2" height="2"/>
	<rect x="3" y="6" width="2" height="2"/>
	<rect x="5" y="8" width="2" height="2"/>
	<rect x="7" y="8" width="2" height="2"/>
	<rect x="7" y="6" width="2" height="2"/>
	<rect x="7" y="4" width="2" height="2"/>
	<rect x="7" y="10" width="2" height="2"/>
	<rect x="9" y="6" width="2" height="2"/>
	<rect x="11" y="8" width="2" height="2"/>
	<rect x="13" y="10" width="2" height="2"/>
	<rect x="13" y="8" width="2" height="2"/>
	<rect x="13" y="6" width="2" height="2"/>
	<rect x="13" y="4" width="2" height="2"/>
	<rect x="1" y="8" width="2" height="2"/>
	<rect x="1" y="10" width="2" height="2"/>
	<rect x="16" y="7" width="16" height="2"/>
	<rect x="28" y="9" width="2" height="2"/>
	<rect x="26" y="11" width="2" height="2"/>
	<rect x="24" y="13" width="2" height="2"/>
	<rect x="24" y="1" width="2" height="2"/>
	<rect x="26" y="3" width="2" height="2"/>
	<rect x="28" y="5" width="2" height="2"/>
	<rect x="46" y="6" width="2" height="2"/>
	<rect x="32" y="4" width="2" height="2"/>
	<rect x="46" y="4" width="2" height="2"/>
	<rect x="46" y="2" width="2" height="2"/>
	<rect x="44" y="2" width="2" height="2"/>
	<rect x="42" y="2" width="2" height="2"/>
	<rect x="40" y="2" width="2" height="2"/>
	<rect x="38" y="2" width="2" height="2"/>
	<rect x="36" y="2" width="2" height="2"/>
	<rect x="34" y="2" width="2" height="2"/>
	<rect x="32" y="2" width="2" height="2"/>
	<rect x="34" y="4" width="2" height="2"/>
	<rect x="36" y="6" width="2" height="2"/>
	<rect x="38" y="8" width="2" height="2"/>
	<rect x="40" y="8" width="2" height="2"/>
	<rect x="42" y="6" width="2" height="2"/>
	<rect x="44" y="4" width="2" height="2"/>
	<rect x="34" y="12" width="2" height="2"/>
	<rect x="36" y="12" width="2" height="2"/>
	<rect x="38" y="12" width="2" height="2"/>
	<rect x="40" y="12" width="2" height="2"/>
	<rect x="42" y="12" width="2" height="2"/>
	<rect x="44" y="12" width="2" height="2"/>
	<rect x="32" y="6" width="2" height="2"/>
	<rect x="46" y="8" width="2" height="2"/>
	<rect x="32" y="8" width="2" height="2"/>
	<rect x="46" y="10" width="2" height="2"/>
	<rect x="46" y="12" width="2" height="2"/>
	<rect x="32" y="10" width="2" height="2"/>
	<rect x="32" y="12" width="2" height="2"/>
	<rect x="13" y="21" fill="#FFFFFF" width="2" height="2"/>
	<rect x="3" y="21" fill="#FFFFFF" width="2" height="2"/>
	<rect x="12" y="19" fill="#FFFFFF" width="2" height="2"/>
	<rect x="11" y="18" fill="#FFFFFF" width="2" height="1"/>
	<rect x="9" y="17" fill="#FFFFFF" width="2" height="2"/>
	<rect x="10" y="23" fill="#FFFFFF" width="2" height="2"/>
	<rect x="8" y="23" fill="#FFFFFF" width="2" height="2"/>
	<rect x="7" y="18" fill="#FFFFFF" width="2" height="1"/>
	<rect x="4" y="23" fill="#FFFFFF" width="2" height="2"/>
	<rect x="2" y="23" fill="#FFFFFF" width="2" height="2"/>
	<rect x="5" y="19" fill="#FFFFFF" width="2" height="2"/>
	<rect x="6" y="23" fill="#FFFFFF" width="2" height="2"/>
	<rect x="12" y="23" fill="#FFFFFF" width="2" height="2"/>
	<rect x="6" y="28" fill="#FFFFFF" width="1" height="2"/>
	<rect x="5" y="29" fill="#FFFFFF" width="1" height="2"/>
	<rect x="4" y="29" fill="#FFFFFF" width="1" height="2"/>
	<rect x="3" y="28" fill="#FFFFFF" width="1" height="2"/>
	<rect x="2" y="28" fill="#FFFFFF" width="1" height="2"/>
	<rect x="7" y="29" fill="#FFFFFF" width="1" height="2"/>
	<rect x="8" y="29" fill="#FFFFFF" width="1" height="2"/>
	<rect x="9" y="28" fill="#FFFFFF" width="1" height="2"/>
	<rect x="10" y="29" fill="#FFFFFF" width="1" height="2"/>
	<rect x="11" y="29" fill="#FFFFFF" width="1" height="2"/>
	<rect x="12" y="28" fill="#FFFFFF" width="1" height="2"/>
	<rect x="13" y="28" fill="#FFFFFF" width="1" height="2"/>
	<rect x="14" y="27" fill="#FFFFFF" width="1" height="2"/>
	<rect x="1" y="27" fill="#FFFFFF" width="1" height="2"/>
	<rect x="4" y="18" fill="#FFFFFF" width="1" height="2"/>
	<rect x="3" y="18" fill="#FFFFFF" width="1" height="2"/>
	<rect x="2" y="17" fill="#FFFFFF" width="1" height="2"/>
	<rect x="1" y="17" fill="#FFFFFF" width="1" height="2"/>
	<rect x="14" y="28" fill="#FFFFFF" width="1" height="1"/>
	<rect x="14" y="23" fill="#FFFFFF" width="2" height="2"/>
	<rect y="23" fill="#FFFFFF" width="2" height="2"/>
	<rect x="14" y="25" fill="#FFFFFF" width="2" height="2"/>
	<rect x="7" y="26" fill="#FFFFFF" width="2" height="2"/>
	<rect x="10" y="26" fill="#FFFFFF" width="2" height="2"/>
	<rect x="4" y="26" fill="#FFFFFF" width="2" height="2"/>
	<rect y="25" fill="#FFFFFF" width="2" height="2"/>
</g>
</svg>
